C:\Users\r0593348\3dpredictsim\Results\Batchsim_tmt_linear\Pog_s1_tmt_aCst_d02_k250_ig24_pas_GRF.mot
nRows=30
nColumns=19

name C:\Users\r0593348\3dpredictsim\Results\Batchsim_tmt_linear\Pog_s1_tmt_aCst_d02_k250_ig24_pas_GRF.mot
datacolumns 19
datarows 30
range 0.0000000000 0.3241219776
endheader
time 	ground_force_vx	ground_force_vy	ground_force_vz	ground_force_px	ground_force_py	ground_force_pz	1_ground_force_vx	1_ground_force_vy	1_ground_force_vz	1_ground_force_px	1_ground_force_py	1_ground_force_pz	ground_torque_x	ground_torque_y	ground_torque_z	1_ground_torque_x	1_ground_torque_y	1_ground_torque_z
        0.0000000000	      -72.8397445952	       81.0178892355	       53.0076169688	        0.1756033557	        0.0000000000	        0.0355861915	       92.5392180597	      471.0505518504	       -6.4594822710	       -0.3206547405	        0.0000000000	       -0.0322458554	        0.0000000000	        0.0000000000	        0.0000000000	        0.0000000000	        0.0000000000	        0.0000000000	
        0.0111766199	      -66.8562064488	      175.1812135381	       94.7125743045	        0.1804396583	        0.0000000000	        0.0333055893	       73.8385282635	      386.7623096356	      -12.5478787405	       -0.3163605220	        0.0000000000	       -0.0311543242	        0.0000000000	        0.0000000000	        0.0000000000	        0.0000000000	        0.0000000000	        0.0000000000	
        0.0223532398	      -41.3917361884	      327.0929511907	       23.5662212025	        0.1837281005	        0.0000000000	        0.0308543957	       50.1484971500	      288.6098008773	      -10.3423918260	       -0.3090232232	        0.0000000000	       -0.0284689291	        0.0000000000	        0.0000000000	        0.0000000000	        0.0000000000	        0.0000000000	        0.0000000000	
        0.0335298597	      -49.0201282786	      495.5740579213	        1.7164293137	        0.1878232523	        0.0000000000	        0.0313273249	       28.0141696970	      195.1943585777	       -7.0574867840	       -0.2960691484	        0.0000000000	       -0.0228571765	        0.0000000000	        0.0000000000	        0.0000000000	        0.0000000000	        0.0000000000	        0.0000000000	
        0.0447064797	      -82.9811135268	      681.0721239533	       -7.3354163760	        0.1962101188	        0.0000000000	        0.0338850342	        9.6290714869	      141.2036932739	      -11.3662422932	       -0.2826012455	        0.0000000000	       -0.0159323112	        0.0000000000	        0.0000000000	        0.0000000000	        0.0000000000	        0.0000000000	        0.0000000000	
        0.0558830996	     -107.8657678777	      805.8923812648	      -10.9344958240	        0.2022450286	        0.0000000000	        0.0356712743	        0.8082059850	      113.1449025086	      -12.2911884254	       -0.2826933885	        0.0000000000	       -0.0161234747	        0.0000000000	        0.0000000000	        0.0000000000	        0.0000000000	        0.0000000000	        0.0000000000	
        0.0670597195	     -114.6720305651	      852.2185629989	      -12.0605863784	        0.2063854730	        0.0000000000	        0.0367665234	       -2.6523896810	       73.5657315222	      -11.0342048971	       -0.2821365895	        0.0000000000	       -0.0161648339	        0.0000000000	        0.0000000000	        0.0000000000	        0.0000000000	        0.0000000000	        0.0000000000	
        0.0782363394	     -110.0013043772	      849.2709025496	      -12.4594548894	        0.2095135830	        0.0000000000	        0.0374161371	       -7.3619622999	       30.3546322651	       -6.1810288487	       -0.2821648935	        0.0000000000	       -0.0160440183	        0.0000000000	        0.0000000000	        0.0000000000	        0.0000000000	        0.0000000000	        0.0000000000	
        0.0894129593	     -100.6605018753	      827.9870124947	      -13.0195036703	        0.2124927047	        0.0000000000	        0.0377812776	        0.0496982814	       -0.0487686655	        0.0008008256	        0.0000000000	        0.0000000000	        0.0000000000	        0.0000000000	        0.0000000000	        0.0000000000	        0.0000000000	        0.0000000000	        0.0000000000	
        0.1005895792	      -88.2822134401	      797.8486026922	      -14.1823407057	        0.2156989348	        0.0000000000	        0.0379549701	        0.0000182545	       -0.0000145603	       -0.0000012456	        0.0000000000	        0.0000000000	        0.0000000000	        0.0000000000	        0.0000000000	        0.0000000000	        0.0000000000	        0.0000000000	        0.0000000000	
        0.1117661992	      -75.8635480239	      760.7500294247	      -14.4529293880	        0.2191429531	        0.0000000000	        0.0380618046	        0.0000176079	       -0.0000123628	       -0.0000014431	        0.0000000000	        0.0000000000	        0.0000000000	        0.0000000000	        0.0000000000	        0.0000000000	        0.0000000000	        0.0000000000	        0.0000000000	
        0.1229428191	      -65.6535488379	      727.4911258015	      -14.7628014716	        0.2233065417	        0.0000000000	        0.0380648567	        0.0002645995	       -0.0001667550	       -0.0000237517	        0.0000000000	        0.0000000000	        0.0000000000	        0.0000000000	        0.0000000000	        0.0000000000	        0.0000000000	        0.0000000000	        0.0000000000	
        0.1341194390	      -56.1715836471	      697.7561369581	      -15.2178311702	        0.2278146516	        0.0000000000	        0.0380000104	        0.0039302621	       -0.0022719847	       -0.0003710793	        0.0000000000	        0.0000000000	        0.0000000000	        0.0000000000	        0.0000000000	        0.0000000000	        0.0000000000	        0.0000000000	        0.0000000000	
        0.1452960589	      -46.9947777901	      669.6294885756	      -15.7690730214	        0.2323353273	        0.0000000000	        0.0379603887	       -0.0207406445	        0.0111540016	        0.0020250022	        0.0000000000	        0.0000000000	        0.0000000000	        0.0000000000	        0.0000000000	        0.0000000000	        0.0000000000	        0.0000000000	        0.0000000000	
        0.1564726788	      -39.0079809099	      644.7097587130	      -16.3525515248	        0.2368770365	        0.0000000000	        0.0379633886	       -0.0142546431	        0.0072062145	        0.0014316694	        0.0000000000	        0.0000000000	        0.0000000000	        0.0000000000	        0.0000000000	        0.0000000000	        0.0000000000	        0.0000000000	        0.0000000000	
        0.1676492987	      -32.3322964192	      623.8785595060	      -17.0405682676	        0.2414233110	        0.0000000000	        0.0379935958	       -0.0103148617	        0.0049456811	        0.0010604119	        0.0000000000	        0.0000000000	        0.0000000000	        0.0000000000	        0.0000000000	        0.0000000000	        0.0000000000	        0.0000000000	        0.0000000000	
        0.1788259187	      -26.6535025263	      607.3968268463	      -17.6419311420	        0.2461280587	        0.0000000000	        0.0380380256	       -0.0098757584	        0.0045242580	        0.0010336471	        0.0000000000	        0.0000000000	        0.0000000000	        0.0000000000	        0.0000000000	        0.0000000000	        0.0000000000	        0.0000000000	        0.0000000000	
        0.1900025386	      -22.2424358838	      595.5653015416	      -17.9261247134	        0.2511583345	        0.0000000000	        0.0380734788	       -0.0127839178	        0.0056295006	        0.0013553235	        0.0000000000	        0.0000000000	        0.0000000000	        0.0000000000	        0.0000000000	        0.0000000000	        0.0000000000	        0.0000000000	        0.0000000000	
        0.2011791585	      -19.1536245515	      587.9679700374	      -17.9452996309	        0.2564670347	        0.0000000000	        0.0380742257	       -0.0213203522	        0.0090715916	        0.0022733646	        0.0000000000	        0.0000000000	        0.0000000000	        0.0000000000	        0.0000000000	        0.0000000000	        0.0000000000	        0.0000000000	        0.0000000000	
        0.2123557784	      -17.3750350954	      584.1771287986	      -17.9584725108	        0.2620775544	        0.0000000000	        0.0380213254	       -0.0423804747	        0.0175046167	        0.0045172789	        0.0000000000	        0.0000000000	        0.0000000000	        0.0000000000	        0.0000000000	        0.0000000000	        0.0000000000	        0.0000000000	        0.0000000000	
        0.2235323983	      -16.3963159495	      582.9515148564	      -17.7101498040	        0.2678534278	        0.0000000000	        0.0379163805	       -0.0919086551	        0.0370036038	        0.0097535469	        0.0000000000	        0.0000000000	        0.0000000000	        0.0000000000	        0.0000000000	        0.0000000000	        0.0000000000	        0.0000000000	        0.0000000000	
        0.2347090182	      -15.3200617988	      582.9705052889	      -17.4312914853	        0.2737312253	        0.0000000000	        0.0377657654	       -0.1999320924	        0.0787709435	        0.0210498644	        0.0000000000	        0.0000000000	        0.0000000000	        0.0000000000	        0.0000000000	        0.0000000000	        0.0000000000	        0.0000000000	        0.0000000000	
        0.2458856382	      -14.0982669536	      582.9913377627	      -17.0361345764	        0.2796228220	        0.0000000000	        0.0375849170	       -0.4044688135	        0.1565438550	        0.0420945846	        0.0000000000	        0.0000000000	        0.0000000000	        0.0000000000	        0.0000000000	        0.0000000000	        0.0000000000	        0.0000000000	        0.0000000000	
        0.2570622581	      -12.6386170604	      582.2032590093	      -16.5636165948	        0.2854735828	        0.0000000000	        0.0373855851	       -0.7229413960	        0.2758285838	        0.0741355086	        0.0000000000	        0.0000000000	        0.0000000000	        0.0000000000	        0.0000000000	        0.0000000000	        0.0000000000	        0.0000000000	        0.0000000000	
        0.2682388780	      -10.7965234917	      579.9981204779	      -16.1031884251	        0.2912437074	        0.0000000000	        0.0371778348	       -1.1118244016	        0.4194594912	        0.1118938926	        0.0000000000	        0.0000000000	        0.0000000000	        0.0000000000	        0.0000000000	        0.0000000000	        0.0000000000	        0.0000000000	        0.0000000000	
        0.2794154979	       -8.3828469808	      575.6585942498	      -15.6227889957	        0.2968863824	        0.0000000000	        0.0369688408	       -1.4669545838	        0.5486751910	        0.1438068158	        0.0000000000	        0.0000000000	        0.0000000000	        0.0000000000	        0.0000000000	        0.0000000000	        0.0000000000	        0.0000000000	        0.0000000000	
        0.2905921178	       -4.8554254106	      569.4245594921	      -14.6553227741	        0.3025103058	        0.0000000000	        0.0367555076	       -1.6918093103	        0.6284622646	        0.1597750242	        0.0000000000	        0.0000000000	        0.0000000000	        0.0000000000	        0.0000000000	        0.0000000000	        0.0000000000	        0.0000000000	        0.0000000000	
        0.3017687377	       -0.5740075572	      561.8344320050	      -13.1800738585	        0.3081927059	        0.0000000000	        0.0365269651	       -1.7481276065	        0.6456507169	        0.1560807564	        0.0000000000	        0.0000000000	        0.0000000000	        0.0000000000	        0.0000000000	        0.0000000000	        0.0000000000	        0.0000000000	        0.0000000000	
        0.3129453577	        3.4625932170	      554.5995852922	      -11.4125454084	        0.3139243408	        0.0000000000	        0.0362768137	       -1.6287988072	        0.5987119469	        0.1342870363	        0.0000000000	        0.0000000000	        0.0000000000	        0.0000000000	        0.0000000000	        0.0000000000	        0.0000000000	        0.0000000000	        0.0000000000	
        0.3241219776	        6.8965185531	      549.1904232422	       -9.3930116402	        0.3196403958	        0.0000000000	        0.0360068069	       -1.3543281590	        0.4958457456	        0.1000849374	        0.0000000000	        0.0000000000	        0.0000000000	        0.0000000000	        0.0000000000	        0.0000000000	        0.0000000000	        0.0000000000	        0.0000000000	
